/* XPM */
static const char *now_xpm[] = {
/* columns rows colors chars-per-pixel */
"16 16 183 2",
"   c gray16",
".  c #2F2F2F",
"X  c gray19",
"o  c #313131",
"O  c gray20",
"+  c gray29",
"@  c #4E4E4E",
"#  c #505050",
"$  c #515151",
"%  c gray32",
"&  c gray33",
"*  c #565656",
"=  c gray35",
"-  c #5B5B5B",
";  c gray38",
":  c #646464",
">  c #656565",
",  c gray40",
"<  c #676767",
"1  c #6D6D6D",
"2  c gray47",
"3  c gray48",
"4  c #7C7C7C",
"5  c #11933F",
"6  c #149943",
"7  c #199746",
"8  c #1A9E49",
"9  c #14AC4A",
"0  c #17BB51",
"q  c #16BD51",
"w  c #26984F",
"e  c #329F58",
"r  c #39975A",
"t  c #2BA656",
"y  c #2EB65E",
"u  c #31A259",
"i  c #35A25C",
"p  c #3AA760",
"a  c #39AD62",
"s  c #3DB768",
"d  c #1BD25C",
"f  c #20DF64",
"g  c #34C166",
"h  c #30DE6E",
"j  c #39D16F",
"k  c #38DA71",
"l  c #33E371",
"z  c #3CE578",
"x  c #5A9B71",
"c  c #4CA96C",
"v  c #50B072",
"b  c #5CB37B",
"n  c #5EB47D",
"m  c #41CF73",
"M  c #44CB73",
"N  c #40E179",
"B  c #799B85",
"V  c #7C9E88",
"C  c #64BF84",
"Z  c #6FBC8A",
"A  c #7CA58B",
"S  c #7DAF8E",
"D  c #7FAE90",
"F  c #5BCA82",
"G  c #5BD687",
"H  c #5DD086",
"J  c #53E084",
"K  c #53E787",
"L  c #5BE08B",
"P  c #59E88C",
"I  c #5BE88C",
"U  c #5CE98E",
"Y  c #5EE98F",
"T  c #65C085",
"R  c #68C589",
"E  c #6ED392",
"W  c #7EC396",
"Q  c #74DB99",
"!  c #68E594",
"~  c #68EB96",
"^  c #6BEB98",
"/  c #72EC9D",
"(  c #72EC9E",
")  c #7AEDA2",
"_  c #7AEDA3",
"`  c #808080",
"'  c gray51",
"]  c #838383",
"[  c #848484",
"{  c gray52",
"}  c #868686",
"|  c #888888",
" . c #898989",
".. c gray55",
"X. c #8D8D8D",
"o. c gray56",
"O. c gray57",
"+. c #929292",
"@. c #959595",
"#. c #989898",
"$. c gray60",
"%. c #9B9B9B",
"&. c #9D9D9D",
"*. c gray62",
"=. c #9F9F9F",
"-. c #86B295",
";. c #8DB39A",
":. c #90B49D",
">. c #A0A0A0",
",. c gray63",
"<. c #A2A2A2",
"1. c gray64",
"2. c #A4A4A4",
"3. c #A5A5A5",
"4. c #A7A7A7",
"5. c gray66",
"6. c #AAAAAA",
"7. c #ACACAC",
"8. c #AEAEAE",
"9. c #AFAFAF",
"0. c gray69",
"q. c #B1B1B1",
"w. c gray70",
"e. c gray71",
"r. c #B6B6B6",
"t. c #B7B7B7",
"y. c gray73",
"u. c #BBBBBB",
"i. c #BCBCBC",
"p. c gray74",
"a. c gray",
"s. c gray75",
"d. c #86C99E",
"f. c #8CD3A5",
"g. c #8FD7A9",
"h. c #84E0A4",
"j. c #85EFAB",
"k. c #8CEFAF",
"l. c #8FF0B1",
"z. c #9CEAB8",
"x. c #91F0B3",
"c. c #92F0B3",
"v. c #92F1B4",
"b. c #98F1B8",
"n. c #A7E3BC",
"m. c #A3F2BF",
"M. c #A3F3BF",
"N. c #AAF3C4",
"B. c #ACF4C6",
"V. c #B0F0C7",
"C. c #B0F4C8",
"Z. c #B5F5CC",
"A. c #BAF6CF",
"S. c #C1C1C1",
"D. c gray76",
"F. c gray77",
"G. c #C6C6C6",
"H. c gray78",
"J. c #CACACA",
"K. c #CBCBCB",
"L. c #CECECE",
"P. c gray82",
"I. c #D5D5D5",
"U. c gray85",
"Y. c #DADADA",
"T. c #DDDDDD",
"R. c gray87",
"E. c gray88",
"W. c gray89",
"Q. c #E4E4E4",
"!. c #E7E7E7",
"~. c #EAEAEA",
"^. c gray92",
"/. c gray93",
"(. c #EFEFEF",
"). c gray96",
"_. c #F6F6F6",
"`. c #F9F9F9",
"'. c gray98",
"]. c gray99",
"[. c #FDFDFD",
"{. c #FEFEFE",
"}. c gray100",
/* pixels */
"}.}.}.}.`.(.R.I.P.I.R.).}.}.}.}.",
"}.}.}.(.Y.P.F.s.u.a.p.i.T.}.}.}.",
"}.}.Q.I.H.r.4.2.<.1.6.0.0.s.].}.",
"}.Q.P.a.8.:.E L G G -.1.4.<.s.}.",
"_.L.a.4.W Y ( _ ( P l C 2.*.} ~.",
"E.F.w.;.I _ l.b.c._ K f D =.] 8.",
"K.u.4.G ~ k.M.C.N.c.~ k g >.} 2 ",
"a.w.2.N ^ c.B.A.Z.z.Q M q >.' - ",
"r.8.<.h I j.m.V.n.f.R s 9 *.2 @ ",
"r.2.<.j z ! h.g.d.Z v t u @.: = ",
"K.<.<.S d m F T n c e 6 V ] + | ",
"(.@.@.*.n q y a i w 5 x O.; . Y.",
"}.r.4 X.*.A p 8 7 r B X., . } }.",
"}.`.O.< 2 O.$.*.*.O.4 %   , `.}.",
"}.}.}.w.$ % , 1 , @ O O *.}.}.}.",
"}.}.}.}.Q.X.$     $ | R.}.}.}.}."
};
