/* XPM */
static const char *old_xpm[] = {
/* columns rows colors chars-per-pixel */
"16 16 173 2",
"   c #2B0808",
".  c #2C0A0A",
"X  c #340909",
"o  c #3A0A0A",
"O  c #3C0B0B",
"+  c #361616",
"@  c #3A1111",
"#  c gray16",
"$  c #2F2F2F",
"%  c gray19",
"&  c #313131",
"*  c gray20",
"=  c #420C0C",
"-  c #4A0D0D",
";  c #4C0E0E",
":  c #510F0F",
">  c #571818",
",  c #581010",
"<  c #5F1111",
"1  c #482E2E",
"2  c #4F3737",
"3  c #503737",
"4  c #601111",
"5  c #671313",
"6  c #691313",
"7  c #751515",
"8  c #7C1616",
"9  c #7B1818",
"0  c #7B3737",
"q  c gray29",
"w  c #4E4E4E",
"e  c #505050",
"r  c #515151",
"t  c gray32",
"y  c gray33",
"u  c #565656",
"i  c gray35",
"p  c #5B5B5B",
"a  c #695858",
"s  c gray38",
"d  c #646464",
"f  c #656565",
"g  c gray40",
"h  c #676767",
"j  c #6D6D6D",
"k  c gray47",
"l  c gray48",
"z  c #7C7C7C",
"x  c #801717",
"c  c #8B1919",
"v  c #901A1A",
"b  c #971B1B",
"n  c #981B1B",
"m  c #991C1C",
"M  c #9A1E1E",
"N  c #A92424",
"B  c #AB2929",
"V  c #AE2F2F",
"C  c #A33C3C",
"Z  c #AF3131",
"A  c #B23939",
"S  c #855E5E",
"D  c #817878",
"F  c #837B7B",
"G  c #8A7B7B",
"H  c #9B7F7F",
"J  c #B34646",
"K  c #B64444",
"L  c #BA4E4E",
"P  c #BB5151",
"I  c #BE5A5A",
"U  c #A66969",
"Y  c #C26464",
"T  c #C36666",
"R  c #C16969",
"E  c #C56C6C",
"W  c #C97575",
"Q  c #CD7F7F",
"!  c #808080",
"~  c gray51",
"^  c #838383",
"/  c #848484",
"(  c gray52",
")  c #868686",
"_  c #888888",
"`  c #898989",
"'  c gray55",
"]  c #8D8D8D",
"[  c gray56",
"{  c #9C8181",
"}  c gray57",
"|  c #929292",
" . c #959595",
".. c #989898",
"X. c gray60",
"o. c #9B9B9B",
"O. c #9D9D9D",
"+. c gray62",
"@. c #9F9F9F",
"#. c #A88E8E",
"$. c #AF9F9F",
"%. c #BC8080",
"&. c #A0A0A0",
"*. c gray63",
"=. c #A2A2A2",
"-. c gray64",
";. c #A4A4A4",
":. c #A5A5A5",
">. c #A7A7A7",
",. c gray66",
"<. c #AAAAAA",
"1. c #ACACAC",
"2. c #AEAEAE",
"3. c #AFAFAF",
"4. c #B2A6A6",
"5. c #BEA6A6",
"6. c gray69",
"7. c #B1B1B1",
"8. c gray70",
"9. c gray71",
"0. c #B6B6B6",
"q. c #B7B7B7",
"w. c gray73",
"e. c #BBBBBB",
"r. c #BCBCBC",
"t. c gray74",
"y. c gray",
"u. c gray75",
"i. c #C48B8B",
"p. c #CE9090",
"a. c #D08686",
"s. c #D38E8E",
"d. c #D49191",
"f. c #D59393",
"g. c #D69696",
"h. c #CDABAB",
"j. c #D5A3A3",
"k. c #D9A1A1",
"l. c #DAA1A1",
"z. c #DCA6A6",
"x. c #DDA8A8",
"c. c #E0AFAF",
"v. c #E0B0B0",
"b. c #C1C1C1",
"n. c gray76",
"m. c gray77",
"M. c #C6C6C6",
"N. c gray78",
"B. c #CACACA",
"V. c #CBCBCB",
"C. c #CECECE",
"Z. c gray82",
"A. c #D5D5D5",
"S. c gray85",
"D. c #DADADA",
"F. c #DDDDDD",
"G. c gray87",
"H. c gray88",
"J. c gray89",
"K. c #E4E4E4",
"L. c #E7E7E7",
"P. c #EAEAEA",
"I. c gray92",
"U. c gray93",
"Y. c #EFEFEF",
"T. c gray96",
"R. c #F6F6F6",
"E. c #F9F9F9",
"W. c gray98",
"Q. c gray99",
"!. c #FDFDFD",
"~. c #FEFEFE",
"^. c gray100",
/* pixels */
"^.^.^.^.W.Y.G.A.Z.A.G.R.^.^.^.^.",
"^.^.^.Y.D.Z.m.b.e.e.y.y.D.^.^.^.",
"^.^.K.A.m.q.>.;.=.;.>.8.3.b.^.^.",
"^.K.Z.y.3.4.h.j.p.%.#.;.;.=.b.^.",
"R.C.y.>.5.v.v.l.a.Y K U ;.+.) P.",
"H.m.8.$.l.x.x.f.W L B M { +.^ 3.",
"V.e.>.i.s.f.d.Q I V b 8 0 =.) k ",
"y.8.;.R E E T P B v 7 < > +.^ p ",
"q.3.=.J A Z N M 8 4 - o @ +.k w ",
"q.;.=.C b c 8 5 ; X     1  .s p ",
"V.+.=.H 9 6 , =       . F / q _ ",
"Y. . .+.S : O         a } s $ S.",
"^.q.z ] o.G 3 + + 3 D ] g $ ) ^.",
"^.W.} g l ] X.+.+.} z t # g W.^.",
"^.^.^.8.r u g j s r * * +.^.^.^.",
"^.^.^.^.K.[ r # # r _ G.^.^.^.^."
};
