/* XPM */
static const char *recent_xpm[] = {
/* columns rows colors chars-per-pixel */
"16 16 173 2",
"   c #092814",
".  c #0B2916",
"X  c #0B3118",
"o  c #0C371B",
"O  c #0C391C",
"+  c #0D3E1F",
"@  c #12371F",
"#  c #173321",
"$  c gray16",
"%  c #2F2F2F",
"&  c gray19",
"*  c #313131",
"=  c gray20",
"-  c #0F4623",
";  c #0F4723",
":  c #114C26",
">  c #125329",
",  c #13592C",
"<  c #135A2D",
"1  c #19522D",
"2  c #156130",
"3  c #156331",
"4  c #186E37",
"5  c #19753A",
"6  c #1B753B",
"7  c #1A783C",
"8  c #2F4637",
"9  c #374D3F",
"0  c #374E40",
"q  c #39774F",
"w  c gray29",
"e  c #4E4E4E",
"r  c #505050",
"t  c #515151",
"y  c gray32",
"u  c gray33",
"i  c #565656",
"p  c gray35",
"a  c #5B5B5B",
"s  c #59685E",
"d  c gray38",
"f  c #646464",
"g  c #656565",
"h  c gray40",
"j  c #676767",
"k  c #6D6D6D",
"l  c gray47",
"z  c gray48",
"x  c #7C7C7C",
"c  c #1C8341",
"v  c #1D8743",
"b  c #1F8E47",
"n  c #1F8F47",
"m  c #1F9048",
"M  c #219149",
"N  c #3F9C60",
"B  c #28A053",
"V  c #2DA257",
"C  c #32A45B",
"Z  c #35A55D",
"A  c #3DA964",
"S  c #5F826C",
"D  c #47AE6C",
"F  c #49AB6B",
"G  c #51B273",
"H  c #54B376",
"J  c #5DB77D",
"K  c #78807B",
"L  c #7B827E",
"P  c #6AA17E",
"I  c #7C8980",
"U  c #66BB85",
"Y  c #69BD87",
"T  c #6CBB89",
"R  c #6EBF8B",
"E  c #78C393",
"W  c #808080",
"Q  c gray51",
"!  c #838383",
"~  c #848484",
"^  c gray52",
"/  c #868686",
"(  c #888888",
")  c #898989",
"_  c gray55",
"`  c #8D8D8D",
"'  c gray56",
"]  c #809989",
"[  c #829A8A",
"{  c gray57",
"}  c #929292",
"|  c #959595",
" . c #989898",
".. c gray60",
"X. c #9B9B9B",
"o. c #9D9D9D",
"O. c gray62",
"+. c #9F9F9F",
"@. c #8FA697",
"#. c #82B895",
"$. c #A0A0A0",
"%. c gray63",
"&. c #A2A2A2",
"*. c gray64",
"=. c #A4A4A4",
"-. c #A5A5A5",
";. c #A7A7A7",
":. c #A0AEA5",
">. c gray66",
",. c #AAAAAA",
"<. c #ACACAC",
"1. c #AEAEAE",
"2. c #AFAFAF",
"3. c #A7B1AA",
"4. c #A7BCAF",
"5. c gray69",
"6. c #B1B1B1",
"7. c gray70",
"8. c gray71",
"9. c #B6B6B6",
"0. c #B7B7B7",
"q. c gray73",
"w. c #BBBBBB",
"e. c #BCBCBC",
"r. c gray74",
"t. c gray",
"y. c gray75",
"u. c #81C79A",
"i. c #8DC09F",
"p. c #88CAA0",
"a. c #92C9A5",
"s. c #90CEA6",
"d. c #93CFA8",
"f. c #95D0AA",
"g. c #98D1AC",
"h. c #ABCAB7",
"j. c #A3D5B5",
"k. c #A3D6B5",
"l. c #A5D1B5",
"z. c #A7D8B9",
"x. c #A9D9BA",
"c. c #B0DCC0",
"v. c #B2DDC1",
"b. c #C1C1C1",
"n. c gray76",
"m. c gray77",
"M. c #C6C6C6",
"N. c gray78",
"B. c #CACACA",
"V. c #CBCBCB",
"C. c #CECECE",
"Z. c gray82",
"A. c #D5D5D5",
"S. c gray85",
"D. c #DADADA",
"F. c #DDDDDD",
"G. c gray87",
"H. c gray88",
"J. c gray89",
"K. c #E4E4E4",
"L. c #E7E7E7",
"P. c #EAEAEA",
"I. c gray92",
"U. c gray93",
"Y. c #EFEFEF",
"T. c gray96",
"R. c #F6F6F6",
"E. c #F9F9F9",
"W. c gray98",
"Q. c gray99",
"!. c #FDFDFD",
"~. c #FEFEFE",
"^. c gray100",
/* pixels */
"^.^.^.^.W.I.H.A.Z.A.F.R.^.^.^.^.",
"^.^.^.Y.D.Z.N.y.w.w.t.t.D.^.^.^.",
"^.^.K.A.m.9.;.=.*.=.;.7.1.y.^.^.",
"^.K.Z.t.1.3.h.l.a.#.@.=.;.*.b.^.",
"R.C.t.;.4.v.v.j.u.U D P *.O./ P.",
"H.m.7.:.k.x.x.g.E G V M [ O.! 1.",
"V.w.;.i.s.f.d.u.J Z b 7 q O./ l ",
"t.7.=.T R R Y H V v 4 , 1 *.Q a ",
"9.1.*.F A Z B m 6 < ; O # O.l e ",
"9.=.*.A b c 6 2 ; X     8 | f p ",
"V.*.*.I 6 3 > +         L ! w ( ",
"Y.| | O.S : O         s { d % S.",
"^.9.x ` O.I 0 # # 0 K ` h * / ^.",
"^.W.{ j l ` ..O.X.{ x y $ f W.^.",
"^.^.^.7.t i g k g r = = O.^.^.^.",
"^.^.^.^.K.' t $ $ t ) F.^.^.^.^."
};
